<svg width="205" height="273" viewBox="0 0 205 273" fill="none" xmlns="http://www.w3.org/2000/svg">
<g opacity="0.4">
<path d="M23.463 120.3L20.889 128H19.734L17.633 121.851L15.532 128H14.355L11.781 120.3H12.914L14.993 126.559L17.16 120.3H18.172L20.295 126.592L22.418 120.3H23.463Z" fill="white"/>
<path d="M30.3966 127.043V128H24.8086V120.3H30.2426V121.257H25.9086V123.622H29.7696V124.557H25.9086V127.043H30.3966Z" fill="white"/>
<path d="M35.1318 120.3H38.3768C39.1908 120.3 39.9132 120.462 40.5438 120.784C41.1745 121.107 41.6622 121.562 42.0068 122.148C42.3588 122.728 42.5348 123.395 42.5348 124.15C42.5348 124.906 42.3588 125.577 42.0068 126.163C41.6622 126.743 41.1745 127.194 40.5438 127.516C39.9132 127.839 39.1908 128 38.3768 128H35.1318V120.3ZM38.3108 127.043C38.9342 127.043 39.4805 126.922 39.9498 126.68C40.4265 126.438 40.7932 126.101 41.0498 125.668C41.3065 125.228 41.4348 124.722 41.4348 124.15C41.4348 123.578 41.3065 123.076 41.0498 122.643C40.7932 122.203 40.4265 121.862 39.9498 121.62C39.4805 121.378 38.9342 121.257 38.3108 121.257H36.2318V127.043H38.3108Z" fill="white"/>
<path d="M47.6957 128.088C46.9184 128.088 46.2181 127.92 45.5947 127.582C44.9714 127.238 44.4801 126.765 44.1207 126.163C43.7687 125.562 43.5927 124.891 43.5927 124.15C43.5927 123.41 43.7687 122.739 44.1207 122.137C44.4801 121.536 44.9714 121.067 45.5947 120.729C46.2181 120.385 46.9184 120.212 47.6957 120.212C48.4657 120.212 49.1624 120.385 49.7857 120.729C50.4091 121.067 50.8967 121.536 51.2487 122.137C51.6007 122.731 51.7767 123.402 51.7767 124.15C51.7767 124.898 51.6007 125.573 51.2487 126.174C50.8967 126.768 50.4091 127.238 49.7857 127.582C49.1624 127.92 48.4657 128.088 47.6957 128.088ZM47.6957 127.109C48.2604 127.109 48.7664 126.981 49.2137 126.724C49.6684 126.468 50.0241 126.116 50.2807 125.668C50.5447 125.214 50.6767 124.708 50.6767 124.15C50.6767 123.593 50.5447 123.091 50.2807 122.643C50.0241 122.189 49.6684 121.833 49.2137 121.576C48.7664 121.32 48.2604 121.191 47.6957 121.191C47.1311 121.191 46.6177 121.32 46.1557 121.576C45.7011 121.833 45.3417 122.189 45.0777 122.643C44.8211 123.091 44.6927 123.593 44.6927 124.15C44.6927 124.708 44.8211 125.214 45.0777 125.668C45.3417 126.116 45.7011 126.468 46.1557 126.724C46.6177 126.981 47.1311 127.109 47.6957 127.109Z" fill="white"/>
<path d="M62.0001 127.043V128H56.4121V120.3H61.8461V121.257H57.5121V123.622H61.3731V124.557H57.5121V127.043H62.0001Z" fill="white"/>
<path d="M68.5353 128L66.2253 124.821L63.9483 128H62.6833L65.5763 124.051L62.8593 120.3H64.1133L66.2693 123.259L68.4033 120.3H69.6023L66.8853 124.018L69.8003 128H68.5353Z" fill="white"/>
<path d="M70.8389 120.3H71.9389V128H70.8389V120.3Z" fill="white"/>
<path d="M76.4881 128.088C75.9088 128.088 75.3478 128 74.8051 127.824C74.2698 127.641 73.8481 127.406 73.5401 127.12L73.9471 126.262C74.2405 126.526 74.6145 126.743 75.0691 126.911C75.5311 127.073 76.0041 127.153 76.4881 127.153C77.1261 127.153 77.6028 127.047 77.9181 126.834C78.2335 126.614 78.3911 126.325 78.3911 125.965C78.3911 125.701 78.3031 125.489 78.1271 125.327C77.9585 125.159 77.7458 125.03 77.4891 124.942C77.2398 124.854 76.8841 124.755 76.4221 124.645C75.8428 124.506 75.3735 124.367 75.0141 124.227C74.6621 124.088 74.3578 123.875 74.1011 123.589C73.8518 123.296 73.7271 122.904 73.7271 122.412C73.7271 122.002 73.8335 121.631 74.0461 121.301C74.2661 120.971 74.5961 120.707 75.0361 120.509C75.4761 120.311 76.0225 120.212 76.6751 120.212C77.1298 120.212 77.5771 120.271 78.0171 120.388C78.4571 120.506 78.8348 120.674 79.1501 120.894L78.7871 121.774C78.4645 121.569 78.1198 121.415 77.7531 121.312C77.3865 121.202 77.0271 121.147 76.6751 121.147C76.0518 121.147 75.5825 121.261 75.2671 121.488C74.9591 121.716 74.8051 122.009 74.8051 122.368C74.8051 122.632 74.8931 122.849 75.0691 123.017C75.2451 123.179 75.4615 123.307 75.7181 123.402C75.9821 123.49 76.3378 123.586 76.7851 123.688C77.3645 123.828 77.8301 123.967 78.1821 124.106C78.5341 124.246 78.8348 124.458 79.0841 124.744C79.3408 125.03 79.4691 125.415 79.4691 125.899C79.4691 126.303 79.3591 126.673 79.1391 127.01C78.9191 127.34 78.5855 127.604 78.1381 127.802C77.6908 127.993 77.1408 128.088 76.4881 128.088Z" fill="white"/>
<path d="M82.4977 121.257H79.8577V120.3H86.2268V121.257H83.5868V128H82.4977V121.257Z" fill="white"/>
<path d="M95.5599 124.007C96.0072 124.132 96.3592 124.359 96.6159 124.689C96.8726 125.012 97.0009 125.423 97.0009 125.921C97.0009 126.589 96.7479 127.102 96.2419 127.461C95.7432 127.821 95.0136 128 94.0529 128H90.3789V120.3H93.8329C94.7129 120.3 95.3912 120.476 95.8679 120.828C96.3519 121.18 96.5939 121.668 96.5939 122.291C96.5939 122.695 96.4986 123.043 96.3079 123.336C96.1246 123.63 95.8752 123.853 95.5599 124.007ZM91.4789 121.191V123.655H93.7339C94.2986 123.655 94.7312 123.553 95.0319 123.347C95.3399 123.135 95.4939 122.827 95.4939 122.423C95.4939 122.02 95.3399 121.716 95.0319 121.51C94.7312 121.298 94.2986 121.191 93.7339 121.191H91.4789ZM94.0089 127.109C94.6322 127.109 95.1016 127.007 95.4169 126.801C95.7322 126.596 95.8899 126.273 95.8899 125.833C95.8899 124.975 95.2629 124.546 94.0089 124.546H91.4789V127.109H94.0089Z" fill="white"/>
<path d="M101.894 128.088C100.867 128.088 100.068 127.795 99.4961 127.208C98.9241 126.622 98.6381 125.778 98.6381 124.678V120.3H99.7381V124.634C99.7381 126.284 100.46 127.109 101.905 127.109C102.609 127.109 103.148 126.908 103.522 126.504C103.896 126.094 104.083 125.47 104.083 124.634V120.3H105.15V124.678C105.15 125.786 104.864 126.633 104.292 127.219C103.72 127.799 102.921 128.088 101.894 128.088Z" fill="white"/>
<path d="M108.795 121.257H106.155V120.3H112.524V121.257H109.884V128H108.795V121.257Z" fill="white"/>
<path d="M127.555 120.3L124.981 128H123.826L121.725 121.851L119.624 128H118.447L115.873 120.3H117.006L119.085 126.559L121.252 120.3H122.264L124.387 126.592L126.51 120.3H127.555Z" fill="white"/>
<path d="M134.488 127.043V128H128.9V120.3H134.334V121.257H130V123.622H133.861V124.557H130V127.043H134.488Z" fill="white"/>
<path d="M136.38 119.772C136.585 119.772 136.754 119.846 136.886 119.992C137.025 120.132 137.095 120.308 137.095 120.52C137.095 120.63 137.084 120.74 137.062 120.85C137.04 120.953 136.992 121.103 136.919 121.301L136.391 122.841H135.698L136.105 121.202C135.965 121.151 135.852 121.067 135.764 120.949C135.683 120.825 135.643 120.682 135.643 120.52C135.643 120.3 135.712 120.121 135.852 119.981C135.991 119.842 136.167 119.772 136.38 119.772Z" fill="white"/>
<path d="M143.91 128L142.249 125.635C142.043 125.65 141.882 125.657 141.765 125.657H139.862V128H138.762V120.3H141.765C142.762 120.3 143.547 120.539 144.119 121.015C144.691 121.492 144.977 122.148 144.977 122.984C144.977 123.578 144.83 124.084 144.537 124.502C144.243 124.92 143.825 125.225 143.283 125.415L145.109 128H143.91ZM141.732 124.722C142.428 124.722 142.96 124.572 143.327 124.271C143.693 123.971 143.877 123.542 143.877 122.984C143.877 122.427 143.693 122.002 143.327 121.708C142.96 121.408 142.428 121.257 141.732 121.257H139.862V124.722H141.732Z" fill="white"/>
<path d="M152.342 127.043V128H146.754V120.3H152.188V121.257H147.854V123.622H151.715V124.557H147.854V127.043H152.342Z" fill="white"/>
<path d="M159.321 128.088C158.742 128.088 158.181 128 157.638 127.824C157.103 127.641 156.681 127.406 156.373 127.12L156.78 126.262C157.073 126.526 157.447 126.743 157.902 126.911C158.364 127.073 158.837 127.153 159.321 127.153C159.959 127.153 160.436 127.047 160.751 126.834C161.066 126.614 161.224 126.325 161.224 125.965C161.224 125.701 161.136 125.489 160.96 125.327C160.791 125.159 160.579 125.03 160.322 124.942C160.073 124.854 159.717 124.755 159.255 124.645C158.676 124.506 158.206 124.367 157.847 124.227C157.495 124.088 157.191 123.875 156.934 123.589C156.685 123.296 156.56 122.904 156.56 122.412C156.56 122.002 156.666 121.631 156.879 121.301C157.099 120.971 157.429 120.707 157.869 120.509C158.309 120.311 158.855 120.212 159.508 120.212C159.963 120.212 160.41 120.271 160.85 120.388C161.29 120.506 161.668 120.674 161.983 120.894L161.62 121.774C161.297 121.569 160.953 121.415 160.586 121.312C160.219 121.202 159.86 121.147 159.508 121.147C158.885 121.147 158.415 121.261 158.1 121.488C157.792 121.716 157.638 122.009 157.638 122.368C157.638 122.632 157.726 122.849 157.902 123.017C158.078 123.179 158.294 123.307 158.551 123.402C158.815 123.49 159.171 123.586 159.618 123.688C160.197 123.828 160.663 123.967 161.015 124.106C161.367 124.246 161.668 124.458 161.917 124.744C162.174 125.03 162.302 125.415 162.302 125.899C162.302 126.303 162.192 126.673 161.972 127.01C161.752 127.34 161.418 127.604 160.971 127.802C160.524 127.993 159.974 128.088 159.321 128.088Z" fill="white"/>
<path d="M165.331 121.257H162.691V120.3H169.06V121.257H166.42V128H165.331V121.257Z" fill="white"/>
<path d="M170.258 120.3H171.358V128H170.258V120.3Z" fill="white"/>
<path d="M173.663 120.3H174.763V127.043H178.932V128H173.663V120.3Z" fill="white"/>
<path d="M180.194 120.3H181.294V127.043H185.463V128H180.194V120.3Z" fill="white"/>
<path d="M6.16342 138.007C6.61076 138.132 6.96275 138.359 7.21942 138.689C7.47609 139.012 7.60442 139.423 7.60442 139.921C7.60442 140.589 7.35142 141.102 6.84542 141.461C6.34675 141.821 5.61709 142 4.65642 142H0.982422V134.3H4.43642C5.31642 134.3 5.99476 134.476 6.47142 134.828C6.95542 135.18 7.19742 135.668 7.19742 136.291C7.19742 136.695 7.10209 137.043 6.91142 137.336C6.72809 137.63 6.47876 137.853 6.16342 138.007ZM2.08242 135.191V137.655H4.33742C4.90209 137.655 5.33475 137.553 5.63542 137.347C5.94342 137.135 6.09742 136.827 6.09742 136.423C6.09742 136.02 5.94342 135.716 5.63542 135.51C5.33475 135.298 4.90209 135.191 4.33742 135.191H2.08242ZM4.61242 141.109C5.23576 141.109 5.70509 141.007 6.02042 140.801C6.33575 140.596 6.49342 140.273 6.49342 139.833C6.49342 138.975 5.86642 138.546 4.61242 138.546H2.08242V141.109H4.61242Z" fill="white"/>
<path d="M14.8956 141.043V142H9.30762V134.3H14.7416V135.257H10.4076V137.622H14.2686V138.557H10.4076V141.043H14.8956Z" fill="white"/>
<path d="M16.6768 134.3H17.7768V142H16.6768V134.3Z" fill="white"/>
<path d="M26.704 134.3V142H25.802L21.182 136.258V142H20.082V134.3H20.984L25.604 140.042V134.3H26.704Z" fill="white"/>
<path d="M34.3438 138.106H35.3998V141.109C35.0185 141.425 34.5748 141.667 34.0688 141.835C33.5628 142.004 33.0348 142.088 32.4848 142.088C31.7075 142.088 31.0071 141.92 30.3838 141.582C29.7605 141.238 29.2691 140.768 28.9098 140.174C28.5578 139.573 28.3818 138.898 28.3818 138.15C28.3818 137.402 28.5578 136.728 28.9098 136.126C29.2691 135.525 29.7605 135.056 30.3838 134.718C31.0145 134.381 31.7221 134.212 32.5068 134.212C33.1228 134.212 33.6801 134.315 34.1788 134.52C34.6848 134.718 35.1138 135.012 35.4658 135.4L34.7838 136.082C34.1678 135.488 33.4235 135.191 32.5508 135.191C31.9641 135.191 31.4361 135.32 30.9668 135.576C30.5048 135.826 30.1418 136.178 29.8778 136.632C29.6138 137.08 29.4818 137.586 29.4818 138.15C29.4818 138.708 29.6138 139.214 29.8778 139.668C30.1418 140.116 30.5048 140.468 30.9668 140.724C31.4361 140.981 31.9605 141.109 32.5398 141.109C33.2291 141.109 33.8305 140.944 34.3438 140.614V138.106Z" fill="white"/>
<path d="M43.463 134.3C44.4603 134.3 45.245 134.539 45.817 135.015C46.389 135.492 46.675 136.148 46.675 136.984C46.675 137.82 46.389 138.477 45.817 138.953C45.245 139.43 44.4603 139.668 43.463 139.668H41.56V142H40.46V134.3H43.463ZM43.43 138.711C44.1266 138.711 44.6583 138.565 45.025 138.271C45.3916 137.971 45.575 137.542 45.575 136.984C45.575 136.427 45.3916 136.002 45.025 135.708C44.6583 135.408 44.1266 135.257 43.43 135.257H41.56V138.711H43.43Z" fill="white"/>
<path d="M54.913 134.3V142H53.813V138.568H49.391V142H48.291V134.3H49.391V137.611H53.813V134.3H54.913Z" fill="white"/>
<path d="M60.6938 142.088C59.9164 142.088 59.2161 141.92 58.5928 141.582C57.9694 141.238 57.4781 140.765 57.1188 140.163C56.7668 139.562 56.5908 138.891 56.5908 138.15C56.5908 137.41 56.7668 136.739 57.1188 136.137C57.4781 135.536 57.9694 135.067 58.5928 134.729C59.2161 134.385 59.9164 134.212 60.6938 134.212C61.4638 134.212 62.1604 134.385 62.7838 134.729C63.4071 135.067 63.8948 135.536 64.2468 136.137C64.5988 136.731 64.7748 137.402 64.7748 138.15C64.7748 138.898 64.5988 139.573 64.2468 140.174C63.8948 140.768 63.4071 141.238 62.7838 141.582C62.1604 141.92 61.4638 142.088 60.6938 142.088ZM60.6938 141.109C61.2584 141.109 61.7644 140.981 62.2118 140.724C62.6664 140.468 63.0221 140.116 63.2788 139.668C63.5428 139.214 63.6748 138.708 63.6748 138.15C63.6748 137.593 63.5428 137.091 63.2788 136.643C63.0221 136.189 62.6664 135.833 62.2118 135.576C61.7644 135.32 61.2584 135.191 60.6938 135.191C60.1291 135.191 59.6158 135.32 59.1538 135.576C58.6991 135.833 58.3398 136.189 58.0758 136.643C57.8191 137.091 57.6908 137.593 57.6908 138.15C57.6908 138.708 57.8191 139.214 58.0758 139.668C58.3398 140.116 58.6991 140.468 59.1538 140.724C59.6158 140.981 60.1291 141.109 60.6938 141.109Z" fill="white"/>
<path d="M67.8776 135.257H65.2376V134.3H71.6066V135.257H68.9666V142H67.8776V135.257Z" fill="white"/>
<path d="M76.1733 142.088C75.3959 142.088 74.6956 141.92 74.0723 141.582C73.4489 141.238 72.9576 140.765 72.5983 140.163C72.2463 139.562 72.0703 138.891 72.0703 138.15C72.0703 137.41 72.2463 136.739 72.5983 136.137C72.9576 135.536 73.4489 135.067 74.0723 134.729C74.6956 134.385 75.3959 134.212 76.1733 134.212C76.9433 134.212 77.6399 134.385 78.2633 134.729C78.8866 135.067 79.3743 135.536 79.7263 136.137C80.0783 136.731 80.2543 137.402 80.2543 138.15C80.2543 138.898 80.0783 139.573 79.7263 140.174C79.3743 140.768 78.8866 141.238 78.2633 141.582C77.6399 141.92 76.9433 142.088 76.1733 142.088ZM76.1733 141.109C76.7379 141.109 77.2439 140.981 77.6913 140.724C78.1459 140.468 78.5016 140.116 78.7583 139.668C79.0223 139.214 79.1543 138.708 79.1543 138.15C79.1543 137.593 79.0223 137.091 78.7583 136.643C78.5016 136.189 78.1459 135.833 77.6913 135.576C77.2439 135.32 76.7379 135.191 76.1733 135.191C75.6086 135.191 75.0953 135.32 74.6333 135.576C74.1786 135.833 73.8193 136.189 73.5553 136.643C73.2986 137.091 73.1703 137.593 73.1703 138.15C73.1703 138.708 73.2986 139.214 73.5553 139.668C73.8193 140.116 74.1786 140.468 74.6333 140.724C75.0953 140.981 75.6086 141.109 76.1733 141.109Z" fill="white"/>
<path d="M87.2705 138.106H88.3265V141.109C87.9452 141.425 87.5015 141.667 86.9955 141.835C86.4895 142.004 85.9615 142.088 85.4115 142.088C84.6342 142.088 83.9339 141.92 83.3105 141.582C82.6872 141.238 82.1959 140.768 81.8365 140.174C81.4845 139.573 81.3085 138.898 81.3085 138.15C81.3085 137.402 81.4845 136.728 81.8365 136.126C82.1959 135.525 82.6872 135.056 83.3105 134.718C83.9412 134.381 84.6489 134.212 85.4335 134.212C86.0495 134.212 86.6069 134.315 87.1055 134.52C87.6115 134.718 88.0405 135.012 88.3925 135.4L87.7105 136.082C87.0945 135.488 86.3502 135.191 85.4775 135.191C84.8909 135.191 84.3629 135.32 83.8935 135.576C83.4315 135.826 83.0686 136.178 82.8046 136.632C82.5406 137.08 82.4085 137.586 82.4085 138.15C82.4085 138.708 82.5406 139.214 82.8046 139.668C83.0686 140.116 83.4315 140.468 83.8935 140.724C84.3629 140.981 84.8872 141.109 85.4665 141.109C86.1559 141.109 86.7572 140.944 87.2705 140.614V138.106Z" fill="white"/>
<path d="M95.5806 142L93.9196 139.635C93.7143 139.65 93.5529 139.657 93.4356 139.657H91.5326V142H90.4326V134.3H93.4356C94.4329 134.3 95.2176 134.539 95.7896 135.015C96.3616 135.492 96.6476 136.148 96.6476 136.984C96.6476 137.578 96.501 138.084 96.2076 138.502C95.9143 138.92 95.4963 139.225 94.9536 139.415L96.7796 142H95.5806ZM93.4026 138.722C94.0993 138.722 94.631 138.572 94.9976 138.271C95.3643 137.971 95.5476 137.542 95.5476 136.984C95.5476 136.427 95.3643 136.002 94.9976 135.708C94.631 135.408 94.0993 135.257 93.4026 135.257H91.5326V138.722H93.4026Z" fill="white"/>
<path d="M103.331 140.075H99.2388L98.3918 142H97.2588L100.746 134.3H101.835L105.333 142H104.178L103.331 140.075ZM102.946 139.195L101.285 135.422L99.6238 139.195H102.946Z" fill="white"/>
<path d="M109.484 134.3C110.482 134.3 111.266 134.539 111.838 135.015C112.41 135.492 112.696 136.148 112.696 136.984C112.696 137.82 112.41 138.477 111.838 138.953C111.266 139.43 110.482 139.668 109.484 139.668H107.581V142H106.481V134.3H109.484ZM109.451 138.711C110.148 138.711 110.68 138.565 111.046 138.271C111.413 137.971 111.596 137.542 111.596 136.984C111.596 136.427 111.413 136.002 111.046 135.708C110.68 135.408 110.148 135.257 109.451 135.257H107.581V138.711H109.451Z" fill="white"/>
<path d="M120.935 134.3V142H119.835V138.568H115.412V142H114.312V134.3H115.412V137.611H119.835V134.3H120.935Z" fill="white"/>
<path d="M128.827 141.043V142H123.239V134.3H128.673V135.257H124.339V137.622H128.2V138.557H124.339V141.043H128.827Z" fill="white"/>
<path d="M130.608 134.3H133.853C134.667 134.3 135.39 134.462 136.02 134.784C136.651 135.107 137.139 135.562 137.483 136.148C137.835 136.728 138.011 137.395 138.011 138.15C138.011 138.906 137.835 139.577 137.483 140.163C137.139 140.743 136.651 141.194 136.02 141.516C135.39 141.839 134.667 142 133.853 142H130.608V134.3ZM133.787 141.043C134.411 141.043 134.957 140.922 135.426 140.68C135.903 140.438 136.27 140.101 136.526 139.668C136.783 139.228 136.911 138.722 136.911 138.15C136.911 137.578 136.783 137.076 136.526 136.643C136.27 136.203 135.903 135.862 135.426 135.62C134.957 135.378 134.411 135.257 133.787 135.257H131.708V141.043H133.787Z" fill="white"/>
<path d="M144.179 135.257H141.539V134.3H147.908V135.257H145.268V142H144.179V135.257Z" fill="white"/>
<path d="M152.475 142.088C151.698 142.088 150.997 141.92 150.374 141.582C149.751 141.238 149.259 140.765 148.9 140.163C148.548 139.562 148.372 138.891 148.372 138.15C148.372 137.41 148.548 136.739 148.9 136.137C149.259 135.536 149.751 135.067 150.374 134.729C150.997 134.385 151.698 134.212 152.475 134.212C153.245 134.212 153.942 134.385 154.565 134.729C155.188 135.067 155.676 135.536 156.028 136.137C156.38 136.731 156.556 137.402 156.556 138.15C156.556 138.898 156.38 139.573 156.028 140.174C155.676 140.768 155.188 141.238 154.565 141.582C153.942 141.92 153.245 142.088 152.475 142.088ZM152.475 141.109C153.04 141.109 153.546 140.981 153.993 140.724C154.448 140.468 154.803 140.116 155.06 139.668C155.324 139.214 155.456 138.708 155.456 138.15C155.456 137.593 155.324 137.091 155.06 136.643C154.803 136.189 154.448 135.833 153.993 135.576C153.546 135.32 153.04 135.191 152.475 135.191C151.91 135.191 151.397 135.32 150.935 135.576C150.48 135.833 150.121 136.189 149.857 136.643C149.6 137.091 149.472 137.593 149.472 138.15C149.472 138.708 149.6 139.214 149.857 139.668C150.121 140.116 150.48 140.468 150.935 140.724C151.397 140.981 151.91 141.109 152.475 141.109Z" fill="white"/>
<path d="M163.435 142.088C162.856 142.088 162.295 142 161.752 141.824C161.217 141.641 160.795 141.406 160.487 141.12L160.894 140.262C161.188 140.526 161.562 140.743 162.016 140.911C162.478 141.073 162.951 141.153 163.435 141.153C164.073 141.153 164.55 141.047 164.865 140.834C165.181 140.614 165.338 140.325 165.338 139.965C165.338 139.701 165.25 139.489 165.074 139.327C164.906 139.159 164.693 139.03 164.436 138.942C164.187 138.854 163.831 138.755 163.369 138.645C162.79 138.506 162.321 138.367 161.961 138.227C161.609 138.088 161.305 137.875 161.048 137.589C160.799 137.296 160.674 136.904 160.674 136.412C160.674 136.002 160.781 135.631 160.993 135.301C161.213 134.971 161.543 134.707 161.983 134.509C162.423 134.311 162.97 134.212 163.622 134.212C164.077 134.212 164.524 134.271 164.964 134.388C165.404 134.506 165.782 134.674 166.097 134.894L165.734 135.774C165.412 135.569 165.067 135.415 164.7 135.312C164.334 135.202 163.974 135.147 163.622 135.147C162.999 135.147 162.53 135.261 162.214 135.488C161.906 135.716 161.752 136.009 161.752 136.368C161.752 136.632 161.84 136.849 162.016 137.017C162.192 137.179 162.409 137.307 162.665 137.402C162.929 137.49 163.285 137.586 163.732 137.688C164.312 137.828 164.777 137.967 165.129 138.106C165.481 138.246 165.782 138.458 166.031 138.744C166.288 139.03 166.416 139.415 166.416 139.899C166.416 140.303 166.306 140.673 166.086 141.01C165.866 141.34 165.533 141.604 165.085 141.802C164.638 141.993 164.088 142.088 163.435 142.088Z" fill="white"/>
<path d="M174.645 134.3V142H173.545V138.568H169.123V142H168.023V134.3H169.123V137.611H173.545V134.3H174.645Z" fill="white"/>
<path d="M180.426 142.088C179.649 142.088 178.949 141.92 178.325 141.582C177.702 141.238 177.211 140.765 176.851 140.163C176.499 139.562 176.323 138.891 176.323 138.15C176.323 137.41 176.499 136.739 176.851 136.137C177.211 135.536 177.702 135.067 178.325 134.729C178.949 134.385 179.649 134.212 180.426 134.212C181.196 134.212 181.893 134.385 182.516 134.729C183.14 135.067 183.627 135.536 183.979 136.137C184.331 136.731 184.507 137.402 184.507 138.15C184.507 138.898 184.331 139.573 183.979 140.174C183.627 140.768 183.14 141.238 182.516 141.582C181.893 141.92 181.196 142.088 180.426 142.088ZM180.426 141.109C180.991 141.109 181.497 140.981 181.944 140.724C182.399 140.468 182.755 140.116 183.011 139.668C183.275 139.214 183.407 138.708 183.407 138.15C183.407 137.593 183.275 137.091 183.011 136.643C182.755 136.189 182.399 135.833 181.944 135.576C181.497 135.32 180.991 135.191 180.426 135.191C179.862 135.191 179.348 135.32 178.886 135.576C178.432 135.833 178.072 136.189 177.808 136.643C177.552 137.091 177.423 137.593 177.423 138.15C177.423 138.708 177.552 139.214 177.808 139.668C178.072 140.116 178.432 140.468 178.886 140.724C179.348 140.981 179.862 141.109 180.426 141.109Z" fill="white"/>
<path d="M196.82 134.3L194.246 142H193.091L190.99 135.851L188.889 142H187.712L185.138 134.3H186.271L188.35 140.559L190.517 134.3H191.529L193.652 140.592L195.775 134.3H196.82Z" fill="white"/>
<path d="M37.253 157.088C36.2263 157.088 35.427 156.795 34.855 156.208C34.283 155.622 33.997 154.778 33.997 153.678V149.3H35.097V153.634C35.097 155.284 35.8193 156.109 37.264 156.109C37.968 156.109 38.507 155.908 38.881 155.504C39.255 155.094 39.442 154.47 39.442 153.634V149.3H40.509V153.678C40.509 154.786 40.223 155.633 39.651 156.219C39.079 156.799 38.2797 157.088 37.253 157.088Z" fill="white"/>
<path d="M45.7672 149.3C46.7645 149.3 47.5492 149.539 48.1212 150.015C48.6932 150.492 48.9792 151.148 48.9792 151.984C48.9792 152.82 48.6932 153.477 48.1212 153.953C47.5492 154.43 46.7645 154.668 45.7672 154.668H43.8642V157H42.7642V149.3H45.7672ZM45.7342 153.711C46.4308 153.711 46.9625 153.565 47.3292 153.271C47.6958 152.971 47.8792 152.542 47.8792 151.984C47.8792 151.427 47.6958 151.002 47.3292 150.708C46.9625 150.408 46.4308 150.257 45.7342 150.257H43.8642V153.711H45.7342Z" fill="white"/>
<path d="M60.2787 149.3V157H59.1787V153.568H54.7567V157H53.6567V149.3H54.7567V152.611H59.1787V149.3H60.2787Z" fill="white"/>
<path d="M68.1715 156.043V157H62.5835V149.3H68.0175V150.257H63.6835V152.622H67.5445V153.557H63.6835V156.043H68.1715Z" fill="white"/>
<path d="M75.1006 157L73.4396 154.635C73.2343 154.65 73.073 154.657 72.9556 154.657H71.0526V157H69.9526V149.3H72.9556C73.953 149.3 74.7376 149.539 75.3096 150.015C75.8816 150.492 76.1676 151.148 76.1676 151.984C76.1676 152.578 76.021 153.084 75.7276 153.502C75.4343 153.92 75.0163 154.225 74.4736 154.415L76.2996 157H75.1006ZM72.9226 153.722C73.6193 153.722 74.151 153.572 74.5176 153.271C74.8843 152.971 75.0676 152.542 75.0676 151.984C75.0676 151.427 74.8843 151.002 74.5176 150.708C74.151 150.408 73.6193 150.257 72.9226 150.257H71.0526V153.722H72.9226Z" fill="white"/>
<path d="M83.5328 156.043V157H77.9448V149.3H83.3788V150.257H79.0448V152.622H82.9058V153.557H79.0448V156.043H83.5328Z" fill="white"/>
<path d="M93.1741 155.075H89.0821L88.2351 157H87.1021L90.5891 149.3H91.6781L95.1761 157H94.0211L93.1741 155.075ZM92.7891 154.195L91.1281 150.422L89.4671 154.195H92.7891Z" fill="white"/>
<path d="M97.467 150.257H94.827V149.3H101.196V150.257H98.556V157H97.467V150.257Z" fill="white"/>
<path d="M108.824 157.088C108.047 157.088 107.346 156.92 106.723 156.582C106.1 156.238 105.608 155.765 105.249 155.163C104.897 154.562 104.721 153.891 104.721 153.15C104.721 152.41 104.897 151.739 105.249 151.137C105.608 150.536 106.1 150.067 106.723 149.729C107.346 149.385 108.047 149.212 108.824 149.212C109.594 149.212 110.291 149.385 110.914 149.729C111.537 150.067 112.025 150.536 112.377 151.137C112.729 151.731 112.905 152.402 112.905 153.15C112.905 153.898 112.729 154.573 112.377 155.174C112.025 155.768 111.537 156.238 110.914 156.582C110.291 156.92 109.594 157.088 108.824 157.088ZM108.824 156.109C109.389 156.109 109.895 155.981 110.342 155.724C110.797 155.468 111.152 155.116 111.409 154.668C111.673 154.214 111.805 153.708 111.805 153.15C111.805 152.593 111.673 152.091 111.409 151.643C111.152 151.189 110.797 150.833 110.342 150.576C109.895 150.32 109.389 150.191 108.824 150.191C108.259 150.191 107.746 150.32 107.284 150.576C106.829 150.833 106.47 151.189 106.206 151.643C105.949 152.091 105.821 152.593 105.821 153.15C105.821 153.708 105.949 154.214 106.206 154.668C106.47 155.116 106.829 155.468 107.284 155.724C107.746 155.981 108.259 156.109 108.824 156.109Z" fill="white"/>
<path d="M117.776 157.088C116.75 157.088 115.95 156.795 115.378 156.208C114.806 155.622 114.52 154.778 114.52 153.678V149.3H115.62V153.634C115.62 155.284 116.343 156.109 117.787 156.109C118.491 156.109 119.03 155.908 119.404 155.504C119.778 155.094 119.965 154.47 119.965 153.634V149.3H121.032V153.678C121.032 154.786 120.746 155.633 120.174 156.219C119.602 156.799 118.803 157.088 117.776 157.088Z" fill="white"/>
<path d="M128.436 157L126.775 154.635C126.569 154.65 126.408 154.657 126.291 154.657H124.388V157H123.288V149.3H126.291C127.288 149.3 128.073 149.539 128.645 150.015C129.217 150.492 129.503 151.148 129.503 151.984C129.503 152.578 129.356 153.084 129.063 153.502C128.769 153.92 128.351 154.225 127.809 154.415L129.635 157H128.436ZM126.258 153.722C126.954 153.722 127.486 153.572 127.853 153.271C128.219 152.971 128.403 152.542 128.403 151.984C128.403 151.427 128.219 151.002 127.853 150.708C127.486 150.408 126.954 150.257 126.258 150.257H124.388V153.722H126.258Z" fill="white"/>
<path d="M139.415 153.007C139.862 153.132 140.214 153.359 140.471 153.689C140.728 154.012 140.856 154.423 140.856 154.921C140.856 155.589 140.603 156.102 140.097 156.461C139.598 156.821 138.869 157 137.908 157H134.234V149.3H137.688C138.568 149.3 139.246 149.476 139.723 149.828C140.207 150.18 140.449 150.668 140.449 151.291C140.449 151.695 140.354 152.043 140.163 152.336C139.98 152.63 139.73 152.853 139.415 153.007ZM135.334 150.191V152.655H137.589C138.154 152.655 138.586 152.553 138.887 152.347C139.195 152.135 139.349 151.827 139.349 151.423C139.349 151.02 139.195 150.716 138.887 150.51C138.586 150.298 138.154 150.191 137.589 150.191H135.334ZM137.864 156.109C138.487 156.109 138.957 156.007 139.272 155.801C139.587 155.596 139.745 155.273 139.745 154.833C139.745 153.975 139.118 153.546 137.864 153.546H135.334V156.109H137.864Z" fill="white"/>
<path d="M148.147 156.043V157H142.559V149.3H147.993V150.257H143.659V152.622H147.52V153.557H143.659V156.043H148.147Z" fill="white"/>
<path d="M152.172 157.088C151.593 157.088 151.032 157 150.489 156.824C149.954 156.641 149.532 156.406 149.224 156.12L149.631 155.262C149.925 155.526 150.299 155.743 150.753 155.911C151.215 156.073 151.688 156.153 152.172 156.153C152.81 156.153 153.287 156.047 153.602 155.834C153.918 155.614 154.075 155.325 154.075 154.965C154.075 154.701 153.987 154.489 153.811 154.327C153.643 154.159 153.43 154.03 153.173 153.942C152.924 153.854 152.568 153.755 152.106 153.645C151.527 153.506 151.058 153.367 150.698 153.227C150.346 153.088 150.042 152.875 149.785 152.589C149.536 152.296 149.411 151.904 149.411 151.412C149.411 151.002 149.518 150.631 149.73 150.301C149.95 149.971 150.28 149.707 150.72 149.509C151.16 149.311 151.707 149.212 152.359 149.212C152.814 149.212 153.261 149.271 153.701 149.388C154.141 149.506 154.519 149.674 154.834 149.894L154.471 150.774C154.149 150.569 153.804 150.415 153.437 150.312C153.071 150.202 152.711 150.147 152.359 150.147C151.736 150.147 151.267 150.261 150.951 150.488C150.643 150.716 150.489 151.009 150.489 151.368C150.489 151.632 150.577 151.849 150.753 152.017C150.929 152.179 151.146 152.307 151.402 152.402C151.666 152.49 152.022 152.586 152.469 152.688C153.049 152.828 153.514 152.967 153.866 153.106C154.218 153.246 154.519 153.458 154.768 153.744C155.025 154.03 155.153 154.415 155.153 154.899C155.153 155.303 155.043 155.673 154.823 156.01C154.603 156.34 154.27 156.604 153.822 156.802C153.375 156.993 152.825 157.088 152.172 157.088Z" fill="white"/>
<path d="M158.182 150.257H155.542V149.3H161.911V150.257H159.271V157H158.182V150.257Z" fill="white"/>
<path d="M162.853 157.066C162.648 157.066 162.472 156.997 162.325 156.857C162.179 156.711 162.105 156.527 162.105 156.307C162.105 156.095 162.179 155.919 162.325 155.779C162.472 155.633 162.648 155.559 162.853 155.559C163.059 155.559 163.231 155.629 163.37 155.768C163.51 155.908 163.579 156.087 163.579 156.307C163.579 156.527 163.506 156.711 163.359 156.857C163.22 156.997 163.051 157.066 162.853 157.066Z" fill="white"/>
</g>
<g opacity="0.1">
<path d="M160 272.906C163.4 260.806 166.6 248.606 170.3 236.506C171.9 231.206 170.3 226.806 168.1 222.206C164.7 215.206 161.5 208.206 157.8 200.106C167.299 199.216 173.252 188.518 182.5 186.206C195.3 183.206 197.8 185.106 199.3 198.006C200.5 207.906 202.3 217.706 204.2 227.406C205.5 234.106 202.5 242.306 197.2 246.706C195.3 248.306 194.5 251.406 193.4 253.906C192.3 256.506 191.4 259.206 190.3 262.206C183.5 256.506 189.2 247.006 181.4 241.706C179.8 246.306 178.2 250.306 177.1 254.506C175.9 259.106 175.3 263.906 174.2 268.606C173.8 270.106 172.7 271.506 171.9 272.906C168 272.906 164 272.906 160 272.906Z" fill="white"/>
<path d="M1 272.906C1.9 261.806 3.1 250.706 3.8 239.606C4.6 226.206 7.9 213.406 12.8 200.906C15.6 193.706 18.2 186.306 21.2 178.306C24.6 180.406 28.1 182.306 31.2 184.606C32 185.206 32.2 187.006 32.1 188.106C31.7 195.406 30.4 202.806 30.9 210.006C31.6 219.006 25.9 225.206 23 232.606C18.9 243.006 15.1 253.606 11.1 264.106C10 267.006 9 270.006 8 272.906C5.7 272.906 3.3 272.906 1 272.906Z" fill="white"/>
<path d="M116.8 31.7058C118.8 30.3058 121.6 28.2058 124.5 26.2058C125.2 29.8058 126.5 33.3058 126.4 36.9058C126.3 41.5058 125.6 46.3058 120.6 48.7058C120.1 48.9058 119.5 49.8058 119.5 50.3058C120 58.6058 116.4 67.8058 124.2 74.7058C126.8 77.0058 125.7 79.3058 123.8 81.0058C113.6 90.4058 101.7 96.8058 88.4001 100.606C83.6001 102.006 75.7001 97.0058 75.1001 91.1058C73.6001 76.7058 65.2001 64.8058 61.6001 51.3058C59.4001 42.8058 60.5001 33.4058 60.3001 24.4058C60.3001 23.3058 61.0001 21.9058 60.6001 21.0058C57.7001 13.4058 62.6001 8.10582 66.3001 2.70582C67.4001 1.10582 70.2001 -0.0941785 72.2001 0.00582149C82.1001 0.605822 92.0001 1.40582 101.8 2.80582C104 3.10582 106.8 5.20582 107.7 7.20582C111.1 15.6058 114.1 24.4058 116.8 31.7058Z" fill="white"/>
</g>
</svg>
