<svg width="204" height="273" viewBox="0 0 204 273" fill="none" xmlns="http://www.w3.org/2000/svg">
<path fill-rule="evenodd" clip-rule="evenodd" d="M118.621 29.6816C117.578 30.4375 116.622 31.1307 115.8 31.7058C114.974 29.4727 114.12 27.0993 113.235 24.6399C111.227 19.0594 109.06 13.0363 106.7 7.20582C105.8 5.20582 103 3.10582 100.8 2.80582C91 1.40582 81.1 0.605821 71.2 0.00582149C69.2 -0.0941785 66.4 1.10582 65.3 2.70582C64.8609 3.34673 64.4048 3.98623 63.9469 4.62834C60.5467 9.3963 57.0442 14.3078 59.6 21.0058C59.8438 21.5544 59.6789 22.2888 59.513 23.0278C59.4067 23.5011 59.3 23.9763 59.3 24.4058C59.3565 26.9481 59.3093 29.5223 59.262 32.0992C59.1419 38.6446 59.0215 45.2069 60.6 51.3058C62.0674 56.8087 64.3324 62.0458 66.6025 67.2947C69.9016 74.9226 73.2114 82.5756 74.1 91.1058C74.7 97.0058 82.6 102.006 87.4 100.606C100.7 96.8058 112.6 90.4058 122.8 81.0058C124.7 79.3058 125.8 77.0058 123.2 74.7058C117.461 69.6293 117.893 63.3079 118.323 57.0158C118.478 54.7557 118.632 52.4993 118.5 50.3058C118.5 49.8058 119.1 48.9058 119.6 48.7058C124.6 46.3058 125.3 41.5058 125.4 36.9058C125.47 34.4032 124.862 31.9489 124.251 29.4758C123.983 28.3913 123.713 27.3032 123.5 26.2058C121.791 27.3842 120.117 28.5974 118.621 29.6816ZM75.2173 118.672C75.2173 118.036 75.6733 117.58 76.3093 117.58C76.9453 117.58 77.4013 118.036 77.4013 118.672C77.4013 119.32 76.9453 119.776 76.3093 119.776C75.6733 119.776 75.2173 119.32 75.2173 118.672ZM77.3293 120.532V127H75.2653V120.532H77.3293ZM46.9162 118.096H48.9922V127H46.9162V126.148C46.4602 126.748 45.8002 127.084 44.9722 127.084C43.1482 127.084 41.9482 125.74 41.9482 123.736C41.9482 121.756 43.1362 120.448 44.9242 120.448C45.7762 120.448 46.4602 120.784 46.9162 121.384V118.096ZM44.0242 123.784C44.0362 124.78 44.6122 125.476 45.4762 125.476C46.3402 125.476 46.9162 124.78 46.9162 123.784C46.9162 122.788 46.3402 122.104 45.4762 122.104C44.6122 122.104 44.0362 122.788 44.0242 123.784ZM29.7135 127L32.4855 118.6H30.3015L28.6815 124.78L27.0375 118.6H24.9495L23.3415 124.78L21.6975 118.6H19.4175L22.1655 127H24.3735L25.9575 121.192L27.5175 127H29.7135ZM35.3004 120.46C33.2964 120.46 31.9284 121.78 31.9284 123.784C31.9284 125.752 33.2484 127.072 35.3604 127.072C36.5484 127.072 37.5204 126.652 38.1804 125.932L37.0884 124.864C36.6564 125.296 36.1044 125.524 35.5404 125.524C34.7724 125.524 34.2204 125.092 34.0164 124.324H38.5644C38.7084 121.96 37.5804 120.46 35.3004 120.46ZM33.9804 123.208C34.1124 122.428 34.6044 121.9 35.3244 121.9C36.0684 121.9 36.5724 122.416 36.5724 123.208H33.9804ZM53.7028 120.46C51.5788 120.46 50.1628 121.768 50.1628 123.76C50.1628 125.752 51.5788 127.072 53.7028 127.072C55.8148 127.072 57.2308 125.752 57.2308 123.76C57.2308 121.768 55.8148 120.46 53.7028 120.46ZM53.7028 122.104C54.5548 122.104 55.1428 122.788 55.1428 123.784C55.1428 124.792 54.5548 125.464 53.7028 125.464C52.8388 125.464 52.2508 124.792 52.2508 123.784C52.2508 122.788 52.8388 122.104 53.7028 122.104ZM60.5925 123.784C60.5925 121.78 61.9605 120.46 63.9645 120.46C66.2445 120.46 67.3725 121.96 67.2285 124.324H62.6805C62.8845 125.092 63.4365 125.524 64.2045 125.524C64.7685 125.524 65.3205 125.296 65.7525 124.864L66.8445 125.932C66.1845 126.652 65.2125 127.072 64.0245 127.072C61.9125 127.072 60.5925 125.752 60.5925 123.784ZM63.9885 121.9C63.2685 121.9 62.7765 122.428 62.6445 123.208H65.2365C65.2365 122.416 64.7325 121.9 63.9885 121.9ZM70.808 122.392L69.728 120.532H67.352L69.416 123.688L67.2079 127H69.4879L70.808 124.972L71.9839 127H74.3719L72.1759 123.676L74.228 120.532H71.9599L70.808 122.392ZM81.3079 120.436C79.8079 120.436 78.6799 121.156 78.6799 122.488C78.6726 123.866 79.9054 124.225 80.8742 124.507C81.5001 124.69 82.0159 124.84 82.0159 125.212C82.0159 125.512 81.7159 125.656 81.3079 125.656C80.5879 125.656 79.7479 125.368 79.0159 124.852L78.3559 126.172C79.1359 126.772 80.1799 127.084 81.2599 127.084C82.8199 127.084 83.9839 126.352 83.9839 125.02C83.9912 123.633 82.7065 123.262 81.7153 122.976C81.0939 122.796 80.5879 122.65 80.5879 122.308C80.5879 122.008 80.8519 121.864 81.2239 121.864C81.7639 121.864 82.4839 122.092 83.2639 122.512L83.9719 121.168C83.1799 120.7 82.2439 120.436 81.3079 120.436ZM88.1082 125.428C88.3242 125.428 88.6002 125.344 88.9122 125.212L89.3202 126.652C88.8522 126.928 88.2162 127.096 87.5922 127.096C86.3442 127.096 85.4442 126.388 85.4442 125.044V122.188H84.5442V120.832H85.4442V119.032H87.5082V120.82H89.2002V122.188H87.5082V124.72C87.5082 125.224 87.7242 125.44 88.1082 125.428ZM97.2161 120.46C96.4001 120.46 95.7401 120.796 95.2841 121.384V118.096H93.2081V127H95.2841V126.136C95.7401 126.736 96.4241 127.072 97.2641 127.072C99.0761 127.072 100.252 125.764 100.252 123.796C100.252 121.792 99.0401 120.46 97.2161 120.46ZM96.7121 125.428C95.8721 125.428 95.2841 124.744 95.2841 123.736C95.2841 122.752 95.8721 122.056 96.7121 122.056C97.5761 122.056 98.1641 122.752 98.1641 123.736C98.1641 124.732 97.5761 125.428 96.7121 125.428ZM105.587 120.532H107.663V127H105.587V125.932C105.143 126.7 104.423 127.084 103.487 127.084C102.083 127.084 101.171 126.124 101.171 124.612V120.532H103.247V124.024C103.247 124.792 103.667 125.26 104.327 125.26C105.119 125.248 105.587 124.6 105.587 123.724V120.532ZM113.088 125.212C112.776 125.344 112.5 125.428 112.284 125.428C111.9 125.44 111.684 125.224 111.684 124.72V122.188H113.376V120.82H111.684V119.032H109.62V120.832H108.72V122.188H109.62V125.044C109.62 126.388 110.52 127.096 111.768 127.096C112.392 127.096 113.028 126.928 113.496 126.652L113.088 125.212ZM127.824 120.532L125.46 127H123.408L122.136 122.896L120.864 127H118.8L116.436 120.532H118.548L119.88 125.008L121.176 120.532H123.156L124.488 125.008L125.796 120.532H127.824ZM131.183 120.46C129.179 120.46 127.811 121.78 127.811 123.784C127.811 125.752 129.131 127.072 131.243 127.072C132.431 127.072 133.403 126.652 134.063 125.932L132.971 124.864C132.539 125.296 131.987 125.524 131.423 125.524C130.655 125.524 130.103 125.092 129.899 124.324H134.447C134.591 121.96 133.463 120.46 131.183 120.46ZM129.863 123.208C129.995 122.428 130.487 121.9 131.207 121.9C131.951 121.9 132.455 122.416 132.455 123.208H129.863ZM135.21 119.584C135.21 118.996 135.63 118.588 136.206 118.588C136.734 118.588 137.19 118.948 137.19 119.572C137.19 119.884 137.082 120.136 136.926 120.364L136.05 121.636H135.066L135.606 120.364C135.33 120.172 135.21 119.896 135.21 119.584ZM140.541 120.532H138.465V127H140.541V123.676C140.649 122.764 141.441 122.2 142.641 122.308V120.436C141.717 120.448 140.985 120.868 140.541 121.624V120.532ZM143.046 123.784C143.046 121.78 144.414 120.46 146.418 120.46C148.698 120.46 149.826 121.96 149.682 124.324H145.134C145.338 125.092 145.89 125.524 146.658 125.524C147.222 125.524 147.774 125.296 148.206 124.864L149.298 125.932C148.638 126.652 147.666 127.072 146.478 127.072C144.366 127.072 143.046 125.752 143.046 123.784ZM146.442 121.9C145.722 121.9 145.23 122.428 145.098 123.208H147.69C147.69 122.416 147.186 121.9 146.442 121.9ZM155.909 120.436C154.409 120.436 153.281 121.156 153.281 122.488C153.274 123.866 154.507 124.225 155.476 124.507C156.102 124.69 156.617 124.84 156.617 125.212C156.617 125.512 156.317 125.656 155.909 125.656C155.189 125.656 154.349 125.368 153.617 124.852L152.957 126.172C153.737 126.772 154.781 127.084 155.861 127.084C157.421 127.084 158.585 126.352 158.585 125.02C158.593 123.633 157.308 123.262 156.317 122.976C155.695 122.796 155.189 122.65 155.189 122.308C155.189 122.008 155.453 121.864 155.825 121.864C156.365 121.864 157.085 122.092 157.865 122.512L158.573 121.168C157.781 120.7 156.845 120.436 155.909 120.436ZM162.71 125.428C162.926 125.428 163.202 125.344 163.514 125.212L163.922 126.652C163.454 126.928 162.818 127.096 162.194 127.096C160.946 127.096 160.046 126.388 160.046 125.044V122.188H159.146V120.832H160.046V119.032H162.11V120.82H163.802V122.188H162.11V124.72C162.11 125.224 162.326 125.44 162.71 125.428ZM166.005 117.58C165.369 117.58 164.913 118.036 164.913 118.672C164.913 119.32 165.369 119.776 166.005 119.776C166.641 119.776 167.097 119.32 167.097 118.672C167.097 118.036 166.641 117.58 166.005 117.58ZM167.025 127V120.532H164.961V127H167.025ZM170.823 118.096V127H168.747V118.096H170.823ZM174.679 127V118.096H172.603V127H174.679ZM29.5068 136.384C29.9628 135.796 30.6228 135.46 31.4388 135.46C33.2628 135.46 34.4748 136.792 34.4748 138.796C34.4748 140.764 33.2988 142.072 31.4868 142.072C30.6468 142.072 29.9628 141.736 29.5068 141.136V142H27.4308V133.096H29.5068V136.384ZM29.5068 138.736C29.5068 139.744 30.0948 140.428 30.9348 140.428C31.7988 140.428 32.3868 139.732 32.3868 138.736C32.3868 137.752 31.7988 137.056 30.9348 137.056C30.0948 137.056 29.5068 137.752 29.5068 138.736ZM38.4176 135.46C36.4136 135.46 35.0456 136.78 35.0456 138.784C35.0456 140.752 36.3656 142.072 38.4776 142.072C39.6656 142.072 40.6376 141.652 41.2976 140.932L40.2056 139.864C39.7736 140.296 39.2216 140.524 38.6576 140.524C37.8896 140.524 37.3376 140.092 37.1336 139.324H41.6816C41.8256 136.96 40.6976 135.46 38.4176 135.46ZM37.0976 138.208C37.2296 137.428 37.7216 136.9 38.4416 136.9C39.1856 136.9 39.6896 137.416 39.6896 138.208H37.0976ZM42.7564 133.672C42.7564 133.036 43.2124 132.58 43.8484 132.58C44.4844 132.58 44.9404 133.036 44.9404 133.672C44.9404 134.32 44.4844 134.776 43.8484 134.776C43.2124 134.776 42.7564 134.32 42.7564 133.672ZM44.8684 135.532V142H42.8044V135.532H44.8684ZM50.7669 135.436C49.8069 135.448 49.0629 135.832 48.6069 136.588V135.532H46.5309V142H48.6069V138.58C48.6909 137.812 49.1709 137.272 49.9269 137.272C50.6229 137.272 51.0669 137.74 51.0669 138.496V142H53.1309V137.92C53.1309 136.408 52.1949 135.436 50.7669 135.436ZM58.7211 135.532H60.7851V141.412C60.7851 143.248 59.3691 144.412 57.2811 144.412C56.1531 144.412 55.1331 144.052 54.4011 143.56L55.1211 142.156C55.7091 142.564 56.4291 142.804 57.1251 142.804C58.1211 142.804 58.7211 142.276 58.7211 141.472V140.788C58.3011 141.34 57.6651 141.652 56.8611 141.652C55.2291 141.652 54.0771 140.404 54.0771 138.52C54.0771 136.684 55.1931 135.46 56.8131 135.46C57.6411 135.448 58.2891 135.76 58.7211 136.324V135.532ZM56.0091 138.58C56.0091 139.504 56.5611 140.152 57.3771 140.152C58.1811 140.152 58.7211 139.504 58.7211 138.58C58.7211 137.632 58.1811 136.996 57.3771 136.996C56.5611 136.996 56.0091 137.644 56.0091 138.58ZM69.2317 135.46C68.4157 135.46 67.7557 135.796 67.2997 136.384V135.532H65.2237V144.328H67.2997V141.136C67.7557 141.736 68.4397 142.072 69.2797 142.072C71.0917 142.072 72.2677 140.764 72.2677 138.796C72.2677 136.792 71.0557 135.46 69.2317 135.46ZM68.7277 140.428C67.8877 140.428 67.2997 139.744 67.2997 138.736C67.2997 137.752 67.8877 137.056 68.7277 137.056C69.5917 137.056 70.1797 137.752 70.1797 138.736C70.1797 139.732 69.5917 140.428 68.7277 140.428ZM75.5146 136.6C75.9706 135.832 76.7266 135.448 77.6866 135.436C79.1146 135.436 80.0506 136.408 80.0506 137.92V142H77.9746V138.496C77.9746 137.74 77.5426 137.272 76.8346 137.272C76.0186 137.272 75.5146 137.92 75.5146 138.808V142H73.4386V133.096H75.5146V136.6ZM84.5114 135.46C82.3874 135.46 80.9714 136.768 80.9714 138.76C80.9714 140.752 82.3874 142.072 84.5114 142.072C86.6234 142.072 88.0394 140.752 88.0394 138.76C88.0394 136.768 86.6234 135.46 84.5114 135.46ZM84.5114 137.104C85.3634 137.104 85.9514 137.788 85.9514 138.784C85.9514 139.792 85.3634 140.464 84.5114 140.464C83.6474 140.464 83.0594 139.792 83.0594 138.784C83.0594 137.788 83.6474 137.104 84.5114 137.104ZM92.116 140.428C92.332 140.428 92.608 140.344 92.92 140.212L93.328 141.652C92.86 141.928 92.224 142.096 91.6 142.096C90.352 142.096 89.452 141.388 89.452 140.044V137.188H88.552V135.832H89.452V134.032H91.516V135.82H93.208V137.188H91.516V139.72C91.516 140.224 91.732 140.44 92.116 140.428ZM97.3317 135.46C95.2077 135.46 93.7917 136.768 93.7917 138.76C93.7917 140.752 95.2077 142.072 97.3317 142.072C99.4437 142.072 100.86 140.752 100.86 138.76C100.86 136.768 99.4437 135.46 97.3317 135.46ZM97.3317 137.104C98.1837 137.104 98.7717 137.788 98.7717 138.784C98.7717 139.792 98.1837 140.464 97.3317 140.464C96.4677 140.464 95.8797 139.792 95.8797 138.784C95.8797 137.788 96.4677 137.104 97.3317 137.104ZM106.088 135.532H108.152V141.412C108.152 143.248 106.736 144.412 104.648 144.412C103.52 144.412 102.5 144.052 101.768 143.56L102.488 142.156C103.076 142.564 103.796 142.804 104.492 142.804C105.488 142.804 106.088 142.276 106.088 141.472V140.788C105.668 141.34 105.032 141.652 104.228 141.652C102.596 141.652 101.444 140.404 101.444 138.52C101.444 136.684 102.56 135.46 104.18 135.46C105.008 135.448 105.656 135.76 106.088 136.324V135.532ZM103.376 138.58C103.376 139.504 103.928 140.152 104.744 140.152C105.548 140.152 106.088 139.504 106.088 138.58C106.088 137.632 105.548 136.996 104.744 136.996C103.928 136.996 103.376 137.644 103.376 138.58ZM111.818 135.532H109.742V142H111.818V138.676C111.926 137.764 112.718 137.2 113.918 137.308V135.436C112.994 135.448 112.262 135.868 111.818 136.624V135.532ZM114.591 136.168C115.599 135.7 116.511 135.436 117.591 135.436C119.367 135.436 120.399 136.312 120.411 137.776V142H118.383V141.256C117.963 141.808 117.279 142.096 116.403 142.096C115.023 142.096 114.183 141.256 114.183 140.068C114.183 138.844 115.059 138.124 116.667 138.112H118.371V138.016C118.371 137.38 117.951 136.996 117.111 136.996C116.571 136.996 115.863 137.188 115.179 137.536L114.591 136.168ZM116.127 139.924C116.127 140.392 116.463 140.692 117.039 140.692C117.687 140.692 118.239 140.332 118.371 139.804V139.228H117.063C116.439 139.228 116.127 139.444 116.127 139.924ZM125.95 135.46C125.134 135.46 124.474 135.796 124.018 136.384V135.532H121.942V144.328H124.018V141.136C124.474 141.736 125.158 142.072 125.998 142.072C127.81 142.072 128.986 140.764 128.986 138.796C128.986 136.792 127.774 135.46 125.95 135.46ZM125.446 140.428C124.606 140.428 124.018 139.744 124.018 138.736C124.018 137.752 124.606 137.056 125.446 137.056C126.31 137.056 126.898 137.752 126.898 138.736C126.898 139.732 126.31 140.428 125.446 140.428ZM132.233 136.6C132.689 135.832 133.445 135.448 134.405 135.436C135.833 135.436 136.769 136.408 136.769 137.92V142H134.693V138.496C134.693 137.74 134.261 137.272 133.553 137.272C132.737 137.272 132.233 137.92 132.233 138.808V142H130.157V133.096H132.233V136.6ZM141.062 135.46C139.058 135.46 137.69 136.78 137.69 138.784C137.69 140.752 139.01 142.072 141.122 142.072C142.31 142.072 143.282 141.652 143.942 140.932L142.85 139.864C142.418 140.296 141.866 140.524 141.302 140.524C140.534 140.524 139.982 140.092 139.778 139.324H144.326C144.47 136.96 143.342 135.46 141.062 135.46ZM139.742 138.208C139.874 137.428 140.366 136.9 141.086 136.9C141.83 136.9 142.334 137.416 142.334 138.208H139.742ZM149.889 133.096H151.965V142H149.889V141.148C149.433 141.748 148.773 142.084 147.945 142.084C146.121 142.084 144.921 140.74 144.921 138.736C144.921 136.756 146.109 135.448 147.897 135.448C148.749 135.448 149.433 135.784 149.889 136.384V133.096ZM146.997 138.784C147.009 139.78 147.585 140.476 148.449 140.476C149.313 140.476 149.889 139.78 149.889 138.784C149.889 137.788 149.313 137.104 148.449 137.104C147.585 137.104 147.009 137.788 146.997 138.784ZM160.232 140.212C159.921 140.344 159.645 140.428 159.429 140.428C159.045 140.44 158.829 140.224 158.829 139.72V137.188H160.521V135.82H158.829V134.032H156.765V135.832H155.865V137.188H156.765V140.044C156.765 141.388 157.665 142.096 158.913 142.096C159.536 142.096 160.173 141.928 160.641 141.652L160.232 140.212ZM161.104 138.76C161.104 136.768 162.52 135.46 164.644 135.46C166.756 135.46 168.172 136.768 168.172 138.76C168.172 140.752 166.756 142.072 164.644 142.072C162.52 142.072 161.104 140.752 161.104 138.76ZM166.084 138.784C166.084 137.788 165.496 137.104 164.644 137.104C163.78 137.104 163.192 137.788 163.192 138.784C163.192 139.792 163.78 140.464 164.644 140.464C165.496 140.464 166.084 139.792 166.084 138.784ZM23.8391 151.436C22.3391 151.436 21.2111 152.156 21.2111 153.488C21.2038 154.866 22.4367 155.225 23.4055 155.507C24.0314 155.69 24.5471 155.84 24.5471 156.212C24.5471 156.512 24.2471 156.656 23.8391 156.656C23.1191 156.656 22.2791 156.368 21.5471 155.852L20.8871 157.172C21.6671 157.772 22.7111 158.084 23.7911 158.084C25.3511 158.084 26.5151 157.352 26.5151 156.02C26.5225 154.633 25.2377 154.262 24.2465 153.976C23.6251 153.796 23.1191 153.65 23.1191 153.308C23.1191 153.008 23.3831 152.864 23.7551 152.864C24.2951 152.864 25.0151 153.092 25.7951 153.512L26.5031 152.168C25.7111 151.7 24.7751 151.436 23.8391 151.436ZM29.8115 152.6C30.2675 151.832 31.0234 151.448 31.9834 151.436C33.4114 151.436 34.3475 152.408 34.3475 153.92V158H32.2715V154.496C32.2715 153.74 31.8394 153.272 31.1315 153.272C30.3154 153.272 29.8115 153.92 29.8115 154.808V158H27.7355V149.096H29.8115V152.6ZM38.8083 151.46C36.6843 151.46 35.2683 152.768 35.2683 154.76C35.2683 156.752 36.6843 158.072 38.8083 158.072C40.9203 158.072 42.3363 156.752 42.3363 154.76C42.3363 152.768 40.9203 151.46 38.8083 151.46ZM38.8083 153.104C39.6603 153.104 40.2483 153.788 40.2483 154.784C40.2483 155.792 39.6603 156.464 38.8083 156.464C37.9443 156.464 37.3563 155.792 37.3563 154.784C37.3563 153.788 37.9443 153.104 38.8083 153.104ZM53.7379 151.532L51.374 158H49.3219L48.0499 153.896L46.778 158H44.714L42.3499 151.532H44.4619L45.7939 156.008L47.09 151.532H49.07L50.402 156.008L51.7099 151.532H53.7379ZM63.5653 151.532H61.4893V154.724C61.4893 155.6 61.0213 156.248 60.2293 156.26C59.5693 156.26 59.1493 155.792 59.1493 155.024V151.532H57.0733V155.612C57.0733 157.124 57.9853 158.084 59.3893 158.084C60.3253 158.084 61.0453 157.7 61.4893 156.932V158H63.5653V151.532ZM67.3583 152.384C67.8143 151.796 68.4743 151.46 69.2903 151.46C71.1143 151.46 72.3263 152.792 72.3263 154.796C72.3263 156.764 71.1503 158.072 69.3383 158.072C68.4983 158.072 67.8143 157.736 67.3583 157.136V160.328H65.2823V151.532H67.3583V152.384ZM67.3583 154.736C67.3583 155.744 67.9463 156.428 68.7863 156.428C69.6503 156.428 70.2383 155.732 70.2383 154.736C70.2383 153.752 69.6503 153.056 68.7863 153.056C67.9463 153.056 67.3583 153.752 67.3583 154.736ZM80.5342 151.436C79.5742 151.448 78.8182 151.832 78.3622 152.6V149.096H76.2862V158H78.3622V154.808C78.3622 153.92 78.8662 153.272 79.6822 153.272C80.3902 153.272 80.8222 153.74 80.8222 154.496V158H82.8982V153.92C82.8982 152.408 81.9622 151.436 80.5342 151.436ZM83.819 154.784C83.819 152.78 85.187 151.46 87.191 151.46C89.471 151.46 90.599 152.96 90.455 155.324H85.907C86.111 156.092 86.663 156.524 87.431 156.524C87.995 156.524 88.547 156.296 88.979 155.864L90.071 156.932C89.411 157.652 88.439 158.072 87.251 158.072C85.139 158.072 83.819 156.752 83.819 154.784ZM87.215 152.9C86.495 152.9 86.003 153.428 85.871 154.208H88.463C88.463 153.416 87.959 152.9 87.215 152.9ZM93.6538 151.532H91.5778V158H93.6538V154.676C93.7618 153.764 94.5538 153.2 95.7538 153.308V151.436C94.8298 151.448 94.0978 151.868 93.6538 152.624V151.532ZM96.1589 154.784C96.1589 152.78 97.5269 151.46 99.5309 151.46C101.811 151.46 102.939 152.96 102.795 155.324H98.2469C98.4509 156.092 99.0029 156.524 99.7709 156.524C100.335 156.524 100.887 156.296 101.319 155.864L102.411 156.932C101.751 157.652 100.779 158.072 99.5909 158.072C97.4789 158.072 96.1589 156.752 96.1589 154.784ZM99.5549 152.9C98.8349 152.9 98.3429 153.428 98.2109 154.208H100.803C100.803 153.416 100.299 152.9 99.5549 152.9ZM109.611 151.436C108.531 151.436 107.619 151.7 106.611 152.168L107.199 153.536C107.883 153.188 108.591 152.996 109.131 152.996C109.971 152.996 110.391 153.38 110.391 154.016V154.112H108.687C107.079 154.124 106.203 154.844 106.203 156.068C106.203 157.256 107.043 158.096 108.423 158.096C109.299 158.096 109.983 157.808 110.403 157.256V158H112.431V153.776C112.419 152.312 111.387 151.436 109.611 151.436ZM109.059 156.692C108.483 156.692 108.147 156.392 108.147 155.924C108.147 155.444 108.459 155.228 109.083 155.228H110.391V155.804C110.259 156.332 109.707 156.692 109.059 156.692ZM116.866 156.428C117.082 156.428 117.358 156.344 117.67 156.212L118.078 157.652C117.61 157.928 116.974 158.096 116.35 158.096C115.102 158.096 114.202 157.388 114.202 156.044V153.188H113.302V151.832H114.202V150.032H116.266V151.82H117.958V153.188H116.266V155.72C116.266 156.224 116.482 156.44 116.866 156.428ZM124.906 151.46C122.782 151.46 121.366 152.768 121.366 154.76C121.366 156.752 122.782 158.072 124.906 158.072C127.018 158.072 128.434 156.752 128.434 154.76C128.434 152.768 127.018 151.46 124.906 151.46ZM124.906 153.104C125.758 153.104 126.346 153.788 126.346 154.784C126.346 155.792 125.758 156.464 124.906 156.464C124.042 156.464 123.454 155.792 123.454 154.784C123.454 153.788 124.042 153.104 124.906 153.104ZM133.771 151.532H135.847V158H133.771V156.932C133.327 157.7 132.607 158.084 131.671 158.084C130.267 158.084 129.355 157.124 129.355 155.612V151.532H131.431V155.024C131.431 155.792 131.851 156.26 132.511 156.26C133.303 156.248 133.771 155.6 133.771 154.724V151.532ZM139.58 151.532H137.504V158H139.58V154.676C139.688 153.764 140.48 153.2 141.68 153.308V151.436C140.756 151.448 140.024 151.868 139.58 152.624V151.532ZM147.55 152.384C148.006 151.796 148.666 151.46 149.482 151.46C151.306 151.46 152.518 152.792 152.518 154.796C152.518 156.764 151.342 158.072 149.53 158.072C148.69 158.072 148.006 157.736 147.55 157.136V158H145.474V149.096H147.55V152.384ZM147.55 154.736C147.55 155.744 148.138 156.428 148.978 156.428C149.842 156.428 150.43 155.732 150.43 154.736C150.43 153.752 149.842 153.056 148.978 153.056C148.138 153.056 147.55 153.752 147.55 154.736ZM156.461 151.46C154.457 151.46 153.089 152.78 153.089 154.784C153.089 156.752 154.409 158.072 156.521 158.072C157.709 158.072 158.681 157.652 159.341 156.932L158.249 155.864C157.817 156.296 157.265 156.524 156.701 156.524C155.933 156.524 155.381 156.092 155.177 155.324H159.725C159.869 152.96 158.741 151.46 156.461 151.46ZM155.141 154.208C155.273 153.428 155.765 152.9 156.485 152.9C157.229 152.9 157.733 153.416 157.733 154.208H155.141ZM160.535 153.488C160.535 152.156 161.663 151.436 163.163 151.436C164.099 151.436 165.035 151.7 165.827 152.168L165.119 153.512C164.339 153.092 163.619 152.864 163.079 152.864C162.707 152.864 162.443 153.008 162.443 153.308C162.443 153.65 162.949 153.796 163.571 153.976C164.562 154.262 165.847 154.633 165.839 156.02C165.839 157.352 164.675 158.084 163.115 158.084C162.035 158.084 160.991 157.772 160.211 157.172L160.871 155.852C161.603 156.368 162.443 156.656 163.163 156.656C163.571 156.656 163.871 156.512 163.871 156.212C163.871 155.84 163.356 155.69 162.73 155.507C161.761 155.225 160.528 154.866 160.535 153.488ZM170.768 156.212C170.456 156.344 170.18 156.428 169.964 156.428C169.58 156.44 169.364 156.224 169.364 155.72V153.188H171.056V151.82H169.364V150.032H167.3V151.832H166.4V153.188H167.3V156.044C167.3 157.388 168.2 158.096 169.448 158.096C170.072 158.096 170.708 157.928 171.176 157.652L170.768 156.212ZM171.842 157.088C171.842 156.5 172.251 156.092 172.839 156.092C173.426 156.092 173.847 156.5 173.847 157.088C173.847 157.688 173.426 158.096 172.839 158.096C172.251 158.096 171.842 157.688 171.842 157.088ZM162.038 261.946C161.031 265.605 160.025 269.26 159 272.906H170.9C171.126 272.511 171.375 272.116 171.626 271.718C172.265 270.708 172.913 269.683 173.2 268.606C173.694 266.497 174.087 264.368 174.478 262.245C174.959 259.638 175.438 257.042 176.1 254.506C176.898 251.459 177.959 248.517 179.093 245.374C179.522 244.186 179.961 242.968 180.4 241.706C184.451 244.459 184.861 248.345 185.271 252.243C185.651 255.849 186.032 259.466 189.3 262.206C189.61 261.36 189.905 260.537 190.192 259.735L190.192 259.734C190.924 257.69 191.61 255.772 192.4 253.906C192.664 253.305 192.911 252.669 193.161 252.028L193.161 252.027L193.161 252.026C193.949 250.001 194.757 247.921 196.2 246.706C201.5 242.306 204.5 234.106 203.2 227.406C201.3 217.706 199.5 207.906 198.3 198.006C196.8 185.106 194.3 183.206 181.5 186.206C177.193 187.283 173.6 190.179 170.031 193.055C165.937 196.355 161.875 199.63 156.8 200.106C160.5 208.206 163.7 215.206 167.1 222.206C169.3 226.806 170.9 231.206 169.3 236.506C166.715 244.959 164.374 253.462 162.039 261.944L162.038 261.946ZM0 272.906C0.337498 268.743 0.717184 264.581 1.09687 260.418C1.72968 253.481 2.3625 246.543 2.8 239.606C3.6 226.206 6.9 213.406 11.8 200.906C13.4865 196.569 15.1005 192.16 16.773 187.591C17.8772 184.574 19.007 181.487 20.2 178.306C21.1827 178.913 22.1737 179.503 23.1609 180.091L23.1618 180.091L23.1622 180.092C25.5905 181.538 27.9963 182.971 30.2 184.606C31 185.206 31.2 187.006 31.1 188.106C30.9667 190.539 30.7333 192.984 30.5 195.428C30.0333 200.317 29.5667 205.206 29.9 210.006C30.3875 216.274 27.7706 221.184 25.1573 226.087C24.0184 228.224 22.8802 230.36 22 232.606C19.4902 238.972 17.0928 245.414 14.6931 251.861L14.693 251.861L14.6929 251.862C13.1726 255.946 11.6513 260.034 10.1 264.106C9.22371 266.416 8.41087 268.79 7.61095 271.126L7.6105 271.127C7.40644 271.723 7.20322 272.316 7 272.906H0Z" fill="white"/>
</svg>
